<svg xmlns:xlink="http://www.w3.org/1999/xlink" xmlns="http://www.w3.org/2000/svg" viewBox="0 0 18 18" width="18"  height="18" ><path fill="#919699" d="M9.1 5.71V3H2.14v12.22H16.1v-9.5zm-4.17 8.16h-1.4V12.5h1.4zm0-2.72h-1.4V9.8h1.4zm0-2.71h-1.4V7.07h1.4zm0-2.72h-1.4V4.37h1.4zm2.8 8.16h-1.4V12.5h1.4zm0-2.72h-1.4V9.8h1.4zm0-2.71h-1.4V7.07h1.4zm0-2.72h-1.4V4.37h1.4zm6.97 8.16H9.1v-1.4h1.41v-1.35h-1.4V9.8h1.4V8.42h-1.4V7.07h5.59zm-1.4-5.43h-1.4v1.36h1.4zm0 2.71h-1.4v1.36h1.4z"/><path fill="none" d="M0 0h18v18H0z"/></svg>