<svg xmlns:xlink="http://www.w3.org/1999/xlink" xmlns="http://www.w3.org/2000/svg" data-name="Layer 2" viewBox="0 0 19 19" width="19"  height="19" ><g fill="#919699"><path d="M9.14 1.5a6.12 6.12 0 0 0-6.12 6.04c0 4.2 5.39 8.86 5.62 9.06a.77.77 0 0 0 1 0c.26-.2 5.6-4.87 5.6-9.06a6.12 6.12 0 0 0-6.1-6.05zm0 13.49c-1.28-1.22-4.6-4.6-4.6-7.45a4.59 4.59 0 1 1 9.18 0c0 2.83-3.3 6.23-4.58 7.44z"/><path d="M9.14 4.55a2.68 2.68 0 1 0 2.67 2.68 2.68 2.68 0 0 0-2.67-2.68zm0 3.82a1.15 1.15 0 1 1 1.14-1.15 1.15 1.15 0 0 1-1.14 1.15z"/></g></svg>