<svg xmlns:xlink="http://www.w3.org/1999/xlink" xmlns="http://www.w3.org/2000/svg" data-name="Layer 2" viewBox="0 0 18 18" width="18"  height="18" ><path fill="#919699" d="M14.92 4.3L12 3h-.6L8.77 4.15 6.15 3H6.1l-.08-.07h-.44l-2.9 1.32a.73.73 0 0 0-.48.72v8.92a.73.73 0 0 0 1.03.66l2.62-1.17 2.62 1.17h.04a.62.62 0 0 0 .54 0h.03l2.63-1.17 2.62 1.17a.73.73 0 0 0 1.03-.66V4.96a.73.73 0 0 0-.43-.66zM3.66 5.43l1.46-.65v7.3l-1.46.65zm2.92-.65l1.46.65v7.3l-1.46-.64zm2.92.65l1.46-.65v7.3l-1.46.65zm4.4 7.3l-1.48-.64V4.8l1.46.65z"/></svg>