<svg xmlns="http://www.w3.org/2000/svg" width="31.31" height="12.68" viewBox="0 0 31.31 12.68">
    <path fill="#e83a3a"
        d="M0 4c0-2.17 1.83-4 4-4h23.3c2.18 0 4 1.83 4 4v4.68c0 2.17-1.82 4-4 4H4c-2.17 0-4-1.83-4-4V4z" />
    <path fill="#fff"
        d="M10.62 3v6.7L10 9.68a.56.56 0 0 1-.25-.05.58.58 0 0 1-.2-.16L6.07 5.02q.03.3.03.57v4.1H5V3h.65a1.16 1.16 0 0 1 .13 0 .33.33 0 0 1 .1.03.33.33 0 0 1 .08.06.96.96 0 0 1 .1.1l3.5 4.47-.03-.32V3zm2.74 1v1.85h2.33v.96h-2.33v1.9l2.96.05v1h-4.2v-6.7h4.2V4zM26.3 3l-2.07 6.7H23.1l-1.46-4.57a3.11 3.11 0 0 1-.1-.4l-.07.22-.07.18-1.47 4.57H18.8l-2.07-6.68h1.04a.46.46 0 0 1 .27.08.37.37 0 0 1 .14.2l1.14 4 .07.32.07.36q.03-.2.08-.37t.1-.32l1.3-4a.44.44 0 0 1 .15-.18.4.4 0 0 1 .26-.1h.37a.42.42 0 0 1 .26.09.48.48 0 0 1 .13.2l1.3 3.99a5.76 5.76 0 0 1 .18.66q.06-.37.14-.66l1.13-4a.35.35 0 0 1 .14-.2.44.44 0 0 1 .27-.08z" />
</svg>