<svg xmlns="http://www.w3.org/2000/svg" width="40" height="40" viewBox="0 0 40 40">
  <g data-name="Group 44849">
    <g data-name="Group 42731">
      <circle cx="20" cy="20" r="20" fill="#fff" data-name="Ellipse 911"/>
    </g>
    <g data-name="Group 44800">
      <path fill="none" d="M10 9h20v20H10z" data-name="Rectangle 7802"/>
      <g fill="#a3a3a3">
        <path d="M27.86 20.51a1.7 1.7 0 0 0-1.7 1.7v1.06a1.7 1.7 0 0 0 3.4 0v-1.06a1.7 1.7 0 0 0-1.7-1.7zm0 0" data-name="Path 7021"/>
        <path d="M12.14 24.97a1.7 1.7 0 0 0 1.7-1.7V22.2a1.7 1.7 0 0 0-3.4 0v1.06a1.7 1.7 0 0 0 1.7 1.7zm0 0" data-name="Path 7022"/>
        <path d="M29 27.44h-.59V26.04a2.83 2.83 0 0 1-1.12 0V27.44h-2.25V14.4a.56.56 0 0 0-.56-.56h-8.96a.56.56 0 0 0-.56.56v13.03H12.7V26.04a2.83 2.83 0 0 1-1.12 0V27.44H11a.56.56 0 0 0 0 1.12h18a.56.56 0 0 0 0-1.12zM21.67 15.6a.56.56 0 1 1 1.12 0v10.08a.56.56 0 0 1-1.12 0zm-2.24 0a.56.56 0 1 1 1.12 0v10.08a.56.56 0 0 1-1.12 0zm-2.24 0a.56.56 0 1 1 1.12 0v10.08a.56.56 0 0 1-1.12 0zm0 0" data-name="Path 7023"/>
        <path d="M23.36 12.21a.56.56 0 0 0-.35-.52l-2.44-.99v-.7a.56.56 0 0 0-1.12 0v.72l-2.45.97a.56.56 0 0 0-.36.51v.53h6.72zm0 0" data-name="Path 7024"/>
      </g>
    </g>
  </g>
</svg>
