<svg xmlns:xlink="http://www.w3.org/1999/xlink" xmlns="http://www.w3.org/2000/svg" viewBox="0 0 18 18" width="18"  height="18" ><path fill="none" d="M0 0h18v18H0z"/><path fill="#919699" d="M10.06 15.6l5.3-5.29a1.5 1.5 0 0 0 .44-.92l.43-5.99a1.5 1.5 0 0 0-1.6-1.61l-5.99.43a1.5 1.5 0 0 0-.95.43l-5.3 5.3a1.5 1.5 0 0 0-.04 2.13l5.56 5.55a1.5 1.5 0 0 0 2.12 0zm4.43-6.27l-5.5 5.49L3.17 9l5.5-5.5 6.27-.44z"/><path fill="#919699" d="M11.4 8.66a2.06 2.06 0 0 0 1.46-3.53 2.11 2.11 0 0 0-2.9 0 2.06 2.06 0 0 0 1.45 3.52zm0-3a.94.94 0 0 1 .67 1.6.96.96 0 0 1-1.33 0 .94.94 0 0 1 0-1.33.93.93 0 0 1 .67-.28z"/></svg>