<svg xmlns="http://www.w3.org/2000/svg" width="300" height="300" baseProfile="tiny">
  <path fill="#fff" d="M0 0h300v300H0z" shape-rendering="optimizeSpeed"/>
  <path d="M12 12h11v11H12zM23 12h11v11H23zM34 12h11v11H34zM45 12h11v11H45zM56 12h11v11H56zM67 12h11v11H67zM78 12h11v11H78zM100 12h11v11h-11zM111 12h11v11h-11zM133 12h11v11h-11zM166 12h11v11h-11zM177 12h11v11h-11zM188 12h11v11h-11zM210 12h11v11h-11zM221 12h11v11h-11zM232 12h11v11h-11zM243 12h11v11h-11zM254 12h11v11h-11zM265 12h11v11h-11zM276 12h11v11h-11zM12 23h11v11H12zM78 23h11v11H78zM100 23h11v11h-11zM111 23h11v11h-11zM155 23h11v11h-11zM188 23h11v11h-11zM210 23h11v11h-11zM276 23h11v11h-11zM12 34h11v11H12zM34 34h11v11H34zM45 34h11v11H45zM56 34h11v11H56zM78 34h11v11H78zM100 34h11v11h-11zM111 34h11v11h-11zM166 34h11v11h-11zM210 34h11v11h-11zM232 34h11v11h-11zM243 34h11v11h-11zM254 34h11v11h-11zM276 34h11v11h-11zM12 45h11v11H12zM34 45h11v11H34zM45 45h11v11H45zM56 45h11v11H56zM78 45h11v11H78zM100 45h11v11h-11zM111 45h11v11h-11zM122 45h11v11h-11zM155 45h11v11h-11zM188 45h11v11h-11zM210 45h11v11h-11zM232 45h11v11h-11zM243 45h11v11h-11zM254 45h11v11h-11zM276 45h11v11h-11zM12 56h11v11H12zM34 56h11v11H34zM45 56h11v11H45zM56 56h11v11H56zM78 56h11v11H78zM111 56h11v11h-11zM166 56h11v11h-11zM177 56h11v11h-11zM188 56h11v11h-11zM210 56h11v11h-11zM232 56h11v11h-11zM243 56h11v11h-11zM254 56h11v11h-11zM276 56h11v11h-11zM12 67h11v11H12zM78 67h11v11H78zM100 67h11v11h-11zM111 67h11v11h-11zM122 67h11v11h-11zM188 67h11v11h-11zM210 67h11v11h-11zM276 67h11v11h-11zM12 78h11v11H12zM23 78h11v11H23zM34 78h11v11H34zM45 78h11v11H45zM56 78h11v11H56zM67 78h11v11H67zM78 78h11v11H78zM100 78h11v11h-11zM122 78h11v11h-11zM144 78h11v11h-11zM166 78h11v11h-11zM188 78h11v11h-11zM210 78h11v11h-11zM221 78h11v11h-11zM232 78h11v11h-11zM243 78h11v11h-11zM254 78h11v11h-11zM265 78h11v11h-11zM276 78h11v11h-11zM122 89h11v11h-11zM133 89h11v11h-11zM144 89h11v11h-11zM166 89h11v11h-11zM188 89h11v11h-11zM12 100h11v11H12zM23 100h11v11H23zM56 100h11v11H56zM67 100h11v11H67zM78 100h11v11H78zM122 100h11v11h-11zM133 100h11v11h-11zM144 100h11v11h-11zM221 100h11v11h-11zM243 100h11v11h-11zM254 100h11v11h-11zM265 100h11v11h-11zM276 100h11v11h-11zM34 111h11v11H34zM67 111h11v11H67zM100 111h11v11h-11zM155 111h11v11h-11zM166 111h11v11h-11zM177 111h11v11h-11zM188 111h11v11h-11zM221 111h11v11h-11zM232 111h11v11h-11zM243 111h11v11h-11zM265 111h11v11h-11zM23 122h11v11H23zM45 122h11v11H45zM56 122h11v11H56zM67 122h11v11H67zM78 122h11v11H78zM100 122h11v11h-11zM111 122h11v11h-11zM122 122h11v11h-11zM133 122h11v11h-11zM155 122h11v11h-11zM166 122h11v11h-11zM177 122h11v11h-11zM188 122h11v11h-11zM210 122h11v11h-11zM232 122h11v11h-11zM243 122h11v11h-11zM254 122h11v11h-11zM12 133h11v11H12zM23 133h11v11H23zM45 133h11v11H45zM56 133h11v11H56zM89 133h11v11H89zM100 133h11v11h-11zM111 133h11v11h-11zM144 133h11v11h-11zM166 133h11v11h-11zM199 133h11v11h-11zM210 133h11v11h-11zM254 133h11v11h-11zM265 133h11v11h-11zM56 144h11v11H56zM78 144h11v11H78zM89 144h11v11H89zM100 144h11v11h-11zM144 144h11v11h-11zM166 144h11v11h-11zM177 144h11v11h-11zM199 144h11v11h-11zM210 144h11v11h-11zM243 144h11v11h-11zM254 144h11v11h-11zM265 144h11v11h-11zM276 144h11v11h-11zM12 155h11v11H12zM23 155h11v11H23zM45 155h11v11H45zM56 155h11v11H56zM67 155h11v11H67zM100 155h11v11h-11zM122 155h11v11h-11zM133 155h11v11h-11zM166 155h11v11h-11zM177 155h11v11h-11zM199 155h11v11h-11zM232 155h11v11h-11zM265 155h11v11h-11zM78 166h11v11H78zM89 166h11v11H89zM133 166h11v11h-11zM144 166h11v11h-11zM155 166h11v11h-11zM166 166h11v11h-11zM177 166h11v11h-11zM188 166h11v11h-11zM221 166h11v11h-11zM243 166h11v11h-11zM254 166h11v11h-11zM34 177h11v11H34zM56 177h11v11H56zM111 177h11v11h-11zM166 177h11v11h-11zM188 177h11v11h-11zM210 177h11v11h-11zM243 177h11v11h-11zM254 177h11v11h-11zM265 177h11v11h-11zM12 188h11v11H12zM23 188h11v11H23zM45 188h11v11H45zM67 188h11v11H67zM78 188h11v11H78zM89 188h11v11H89zM100 188h11v11h-11zM122 188h11v11h-11zM133 188h11v11h-11zM144 188h11v11h-11zM188 188h11v11h-11zM199 188h11v11h-11zM210 188h11v11h-11zM221 188h11v11h-11zM232 188h11v11h-11zM243 188h11v11h-11zM254 188h11v11h-11zM100 199h11v11h-11zM122 199h11v11h-11zM155 199h11v11h-11zM188 199h11v11h-11zM232 199h11v11h-11zM254 199h11v11h-11zM12 210h11v11H12zM23 210h11v11H23zM34 210h11v11H34zM45 210h11v11H45zM56 210h11v11H56zM67 210h11v11H67zM78 210h11v11H78zM111 210h11v11h-11zM133 210h11v11h-11zM188 210h11v11h-11zM210 210h11v11h-11zM232 210h11v11h-11zM243 210h11v11h-11zM12 221h11v11H12zM78 221h11v11H78zM100 221h11v11h-11zM122 221h11v11h-11zM133 221h11v11h-11zM166 221h11v11h-11zM188 221h11v11h-11zM232 221h11v11h-11zM243 221h11v11h-11zM254 221h11v11h-11zM265 221h11v11h-11zM276 221h11v11h-11zM12 232h11v11H12zM34 232h11v11H34zM45 232h11v11H45zM56 232h11v11H56zM78 232h11v11H78zM100 232h11v11h-11zM111 232h11v11h-11zM155 232h11v11h-11zM188 232h11v11h-11zM199 232h11v11h-11zM210 232h11v11h-11zM221 232h11v11h-11zM232 232h11v11h-11zM254 232h11v11h-11zM265 232h11v11h-11zM12 243h11v11H12zM34 243h11v11H34zM45 243h11v11H45zM56 243h11v11H56zM78 243h11v11H78zM122 243h11v11h-11zM177 243h11v11h-11zM210 243h11v11h-11zM243 243h11v11h-11zM254 243h11v11h-11zM265 243h11v11h-11zM276 243h11v11h-11zM12 254h11v11H12zM34 254h11v11H34zM45 254h11v11H45zM56 254h11v11H56zM78 254h11v11H78zM133 254h11v11h-11zM144 254h11v11h-11zM155 254h11v11h-11zM177 254h11v11h-11zM210 254h11v11h-11zM221 254h11v11h-11zM265 254h11v11h-11zM12 265h11v11H12zM78 265h11v11H78zM100 265h11v11h-11zM111 265h11v11h-11zM122 265h11v11h-11zM133 265h11v11h-11zM144 265h11v11h-11zM221 265h11v11h-11zM232 265h11v11h-11zM243 265h11v11h-11zM254 265h11v11h-11zM265 265h11v11h-11zM12 276h11v11H12zM23 276h11v11H23zM34 276h11v11H34zM45 276h11v11H45zM56 276h11v11H56zM67 276h11v11H67zM78 276h11v11H78zM100 276h11v11h-11zM111 276h11v11h-11zM144 276h11v11h-11zM254 276h11v11h-11zM265 276h11v11h-11zM276 276h11v11h-11z" shape-rendering="optimizeSpeed"/>
</svg>
