<svg xmlns="http://www.w3.org/2000/svg" width="40" height="44" viewBox="0 0 40 44"><defs><linearGradient id="a" x1=".5" x2=".5" y2="1" gradientUnits="objectBoundingBox"><stop offset="0" stop-color="#c7ad42"/><stop offset="1" stop-color="#8bb155"/></linearGradient><linearGradient id="b" x1=".5" x2=".5" y2="1" gradientUnits="objectBoundingBox"><stop offset="0" stop-color="#daab3b"/><stop offset="1" stop-color="#92b053"/></linearGradient><linearGradient id="c" x1=".5" x2=".5" y2="1" gradientUnits="objectBoundingBox"><stop offset="0" stop-color="#e7a936"/><stop offset="1" stop-color="#8bb155"/></linearGradient><linearGradient id="d" x1=".5" x2=".5" y1=".2" y2="1.5" gradientUnits="objectBoundingBox"><stop offset="0" stop-color="#e7a936"/><stop offset="1" stop-color="#58b25e"/></linearGradient><linearGradient id="e" x1=".5" x2=".5" y2="1" gradientUnits="objectBoundingBox"><stop offset="0" stop-color="#80b157"/><stop offset="1" stop-color="#69b25b"/></linearGradient><linearGradient id="f" x1=".5" x2=".5" y2="1" gradientUnits="objectBoundingBox"><stop offset="0" stop-color="#87b156"/><stop offset="1" stop-color="#6db25b"/></linearGradient><linearGradient id="g" x1=".5" x2=".5" y2="1" gradientUnits="objectBoundingBox"><stop offset="0" stop-color="#52b25f"/><stop offset="1" stop-color="#69b25b"/></linearGradient></defs><g transform="translate(.4)"><rect width="4" height="19" fill="url(#a)" rx="2" transform="translate(-.4 12)"/><rect width="4" height="19" fill="url(#a)" rx="2" transform="translate(35.6 12)"/><rect width="4" height="25" fill="url(#b)" rx="2" transform="translate(5.6 3)"/><rect width="4" height="25" fill="url(#b)" rx="2" transform="translate(29.6 3)"/><rect width="4" height="27" fill="url(#c)" rx="2" transform="translate(11.6)"/><rect width="4" height="27" fill="url(#c)" rx="2" transform="translate(23.6)"/><rect width="4" height="27" fill="url(#d)" rx="2" transform="translate(17.6)"/><rect width="4" height="6" fill="url(#e)" rx="2" transform="translate(-.4 32)"/><rect width="4" height="6" fill="url(#e)" rx="2" transform="translate(35.6 32)"/><rect width="4" height="8" fill="url(#f)" rx="2" transform="translate(5.6 29)"/><rect width="4" height="8" fill="url(#f)" rx="2" transform="translate(29.6 29)"/><rect width="3" height="6" fill="url(#e)" rx="1.5" transform="translate(11.6 28)"/><rect width="3" height="6" fill="url(#e)" rx="1.5" transform="translate(23.6 28)"/><rect width="3" height="11" fill="url(#e)" rx="1.5" transform="translate(17.6 28)"/><rect width="4" height="4" fill="url(#g)" rx="2" transform="translate(-.4 39)"/><rect width="4" height="4" fill="url(#g)" rx="2" transform="translate(35.6 39)"/><rect width="3" height="3" fill="url(#g)" rx="1.5" transform="translate(11.6 35)"/><rect width="3" height="3" fill="url(#g)" rx="1.5" transform="translate(23.6 35)"/><rect width="3" height="3" fill="url(#g)" rx="1.5" transform="translate(17.6 41)"/></g><path fill="#17a555" stroke="#e7f3ef" stroke-width=".5" d="M23.3 15.5l-2.7-.6 2.5-1-.2-2.8 1.7 2.2 2.6-1.1-1.5 2.3 1.8 2-2.7-.6-1.4 2.4z"/><path fill="#17a555" stroke="#e7f3ef" d="M28.6 24.3a9.8 9.8 0 0 1-14 0c-3.8-3.8-4.1-9.4-.3-13.2a9.8 9.8 0 0 1 6.2-2.9 11.8 11.8 0 1 0 7.2 20.2 12 12 0 0 0 3.4-9.3v-.2a7.7 7.7 0 0 1-2.5 5.4z"/></svg>